HIERARCHY
ROOT Hips
{
	OFFSET 54.029099 -57.559414 96.624992
	CHANNELS 6 Xposition Yposition Zposition Xrotation Yrotation Zrotation
	JOINT spine
	{
		OFFSET 0.000000 -0.467659 8.132492
		CHANNELS 3 Xrotation Yrotation Zrotation
		JOINT spine1
		{
			OFFSET 0.000000 -0.000004 10.349800
			CHANNELS 3 Xrotation Yrotation Zrotation
			JOINT spine2
			{
				OFFSET 0.000000 0.000000 9.916992
				CHANNELS 3 Xrotation Yrotation Zrotation
				JOINT Neck
				{
					OFFSET 0.000000 -1.213905 25.460999
					CHANNELS 3 Xrotation Yrotation Zrotation
					JOINT Head
					{
						OFFSET 0.000000 -0.000004 7.692444
						CHANNELS 3 Xrotation Yrotation Zrotation
						End Site
						{
							OFFSET 0.000000 6.140625 18.619995
						}
					}
				}
				JOINT RightShoulder
				{
					OFFSET -4.175751 0.581440 10.709595
					CHANNELS 3 Xrotation Yrotation Zrotation
					JOINT RightArm
					{
						OFFSET 0.000000 0.000000 14.046600
						CHANNELS 3 Xrotation Yrotation Zrotation
						JOINT RightArmRoll
						{
							OFFSET 0.000000 -0.000004 7.090988
							CHANNELS 3 Xrotation Yrotation Zrotation
							JOINT RightForeArm
							{
								OFFSET 0.000000 -0.000004 20.653503
								CHANNELS 3 Xrotation Yrotation Zrotation
								JOINT RightForeArmRoll
								{
									OFFSET 0.000000 0.000000 7.957184
									CHANNELS 3 Xrotation Yrotation Zrotation
									JOINT RightHand
									{
										OFFSET 0.000000 -0.000004 15.968307
										CHANNELS 3 Xrotation Yrotation Zrotation
										End Site
										{
											OFFSET 0.000000 0.000000 0.100006
										}
									}
								}
							}
						}
					}
				}
				JOINT LeftShoulder
				{
					OFFSET 4.175751 0.581440 10.709595
					CHANNELS 3 Xrotation Yrotation Zrotation
					JOINT LeftArm
					{
						OFFSET 0.000000 0.000000 14.046600
						CHANNELS 3 Xrotation Yrotation Zrotation
						JOINT LeftArmRoll
						{
							OFFSET 0.000000 -0.000004 7.090973
							CHANNELS 3 Xrotation Yrotation Zrotation
							JOINT LeftForeArm
							{
								OFFSET 0.000000 -0.000004 20.653503
								CHANNELS 3 Xrotation Yrotation Zrotation
								JOINT LeftForeArmRoll
								{
									OFFSET 0.000000 0.000000 7.957184
									CHANNELS 3 Xrotation Yrotation Zrotation
									JOINT LeftHand
									{
										OFFSET 0.000000 -0.000004 15.968292
										CHANNELS 3 Xrotation Yrotation Zrotation
										End Site
										{
											OFFSET 0.000000 0.000000 0.100006
										}
									}
								}
							}
						}
					}
				}
			}
		}
	}
	JOINT RightUpLeg
	{
		OFFSET -7.208340 1.108841 -1.321823
		CHANNELS 3 Xrotation Yrotation Zrotation
		JOINT RightUpLegRoll
		{
			OFFSET 0.000000 -0.000004 18.723801
			CHANNELS 3 Xrotation Yrotation Zrotation
			JOINT RightLeg
			{
				OFFSET 0.000000 0.000004 -23.186600
				CHANNELS 3 Xrotation Yrotation Zrotation
				JOINT RightLegRoll
				{
					OFFSET 0.000000 -0.000004 23.262398
					CHANNELS 3 Xrotation Yrotation Zrotation
					JOINT RightFoot
					{
						OFFSET 0.000000 -0.000004 19.362091
						CHANNELS 3 Xrotation Yrotation Zrotation
						JOINT RightToeBase
						{
							OFFSET 0.000000 0.000000 16.185699
							CHANNELS 3 Xrotation Yrotation Zrotation
							End Site
							{
								OFFSET 0.006859 0.903519 7.838623
							}
						}
					}
				}
			}
		}
	}
	JOINT LeftUpLeg
	{
		OFFSET 7.208340 1.108841 -1.321823
		CHANNELS 3 Xrotation Yrotation Zrotation
		JOINT LeftUpLegRoll
		{
			OFFSET 0.000000 -0.000004 18.723900
			CHANNELS 3 Xrotation Yrotation Zrotation
			JOINT LeftLeg
			{
				OFFSET 0.000000 -0.000004 23.186493
				CHANNELS 3 Xrotation Yrotation Zrotation
				JOINT LeftLegRoll
				{
					OFFSET 0.000000 -0.000004 23.477493
					CHANNELS 3 Xrotation Yrotation Zrotation
					JOINT LeftFoot
					{
						OFFSET 0.000000 -0.000004 19.147003
						CHANNELS 3 Xrotation Yrotation Zrotation
						JOINT LeftToeBase
						{
							OFFSET 0.000000 0.000000 16.185699
							CHANNELS 3 Xrotation Yrotation Zrotation
							End Site
							{
								OFFSET -0.030746 0.903519 7.838623
							}
						}
					}
				}
			}
		}
	}
}
MOTION
Frames: 11
Frame Time: 0.041667
56.388702 -14.057003 56.738899 -3.597845 1.935950 -3.228136 0.930485 -0.717884 -0.209655 5.861695 -1.431380 -0.400271 7.506981 -1.436080 -0.383093 -4.241192 2.355969 -1.404944 4.698205 -1.510968 -1.677238 -18.960890 -54.679008 -22.419235 -49.590312 -140.518083 -59.358729 0.000001 -0.000001 -0.000002 38.941931 -14.033528 3.411772 -0.000006 -0.000001 -3.000000 -4.999697 -7.998721 0.000051 -20.636645 61.875565 24.361514 -57.978505 135.859839 71.063153 0.000002 0.000006 0.000005 33.156204 9.742755 -2.639630 0.000009 -0.000001 2.999971 -5.000158 7.998815 -0.000130 -83.395756 -167.212074 4.734292 179.999991 0.000006 -0.985004 97.652963 -2.235452 -4.889466 -0.000001 -0.000000 1.743038 67.817420 8.488651 -1.805201 25.456957 -7.355614 0.000087 -83.779565 166.018034 -3.624116 -0.000035 -0.000003 -1.257510 -83.264145 -0.348224 2.333054 -0.000001 -0.000001 -2.244360 62.088045 -8.946627 1.960506 25.460287 7.355621 -0.000822 
56.397705 -14.075012 56.737083 -3.592585 1.936160 -3.228011 0.931509 -0.717331 -0.209469 5.863715 -1.430996 -0.399609 7.509002 -1.435687 -0.382435 -4.245739 2.360013 -1.404436 4.697820 -1.517497 -1.676671 -18.954181 -54.675917 -22.411109 -49.583769 -140.513315 -59.353060 -0.000001 0.000000 -0.000003 38.964030 -14.029081 3.411958 -0.000006 -0.000002 -3.000000 -4.999695 -7.998720 0.000052 -20.631970 61.875374 24.356076 -57.976995 135.857462 71.062702 0.000001 0.000006 0.000003 33.173993 9.739294 -2.639597 0.000007 -0.000003 2.999967 -5.000166 7.998815 -0.000127 -83.402545 -167.214041 4.727707 179.999991 0.000004 -0.985004 97.648599 -2.230720 -4.886859 -0.000002 -0.000000 1.742990 67.817023 8.484611 -1.795066 25.456957 -7.355616 0.000087 -83.784640 166.019974 -3.626290 -0.000035 -0.000002 -1.258059 -83.263305 -0.347505 2.333632 -0.000001 -0.000001 -2.243981 62.085518 -8.948067 1.963337 25.460290 7.355619 -0.000823 
56.384903 -14.069717 56.729992 -3.587450 1.936331 -3.227895 0.932524 -0.716721 -0.209255 5.865725 -1.430553 -0.398883 7.511009 -1.435224 -0.381716 -4.250662 2.363609 -1.403805 4.698456 -1.523794 -1.675938 -18.947916 -54.673366 -22.403473 -49.577662 -140.508766 -59.347172 0.000001 -0.000000 -0.000002 38.985425 -14.024766 3.412072 -0.000006 -0.000001 -3.000000 -4.999694 -7.998719 0.000052 -20.627084 61.874882 24.350412 -57.974762 135.855673 71.061152 0.000000 0.000007 0.000006 33.190874 9.736011 -2.639496 0.000007 -0.000002 2.999971 -5.000160 7.998817 -0.000128 -83.409061 -167.216036 4.721660 179.999991 0.000005 -0.985004 97.643988 -2.225779 -4.884290 -0.000002 -0.000000 1.742950 67.816484 8.480488 -1.784637 25.456957 -7.355614 0.000087 -83.789633 166.021736 -3.627983 -0.000035 -0.000004 -1.258630 -83.262369 -0.346718 2.334287 -0.000001 -0.000001 -2.243600 62.082834 -8.949663 1.966316 25.460292 7.355620 -0.000822 
56.387302 -14.068714 56.731392 -3.582418 1.936482 -3.227777 0.933530 -0.716069 -0.209021 5.867723 -1.430061 -0.398113 7.513000 -1.434732 -0.380951 -4.255858 2.366894 -1.403105 4.699800 -1.529931 -1.675078 -18.941619 -54.671119 -22.395888 -49.572475 -140.503767 -59.342138 -0.000000 -0.000000 -0.000002 39.006302 -14.020470 3.412075 -0.000006 -0.000001 -3.000000 -4.999695 -7.998719 0.000053 -20.622168 61.874308 24.344698 -57.971982 135.854648 71.058611 0.000001 0.000006 0.000004 33.207154 9.732795 -2.639321 0.000008 -0.000001 2.999972 -5.000165 7.998817 -0.000127 -83.415577 -167.218016 4.715307 179.999991 0.000004 -0.984007 97.639419 -2.220711 -4.880718 -0.000002 0.000001 1.742909 67.816006 8.476262 -1.773934 25.456948 -7.355615 0.000087 -83.794619 166.023512 -3.629368 -0.000035 -0.000004 -1.259221 -83.261324 -0.345880 2.335003 -0.000001 -0.000000 -2.243229 62.080143 -8.951258 1.969493 25.460290 7.355622 -0.000824 
56.401905 -14.070919 56.741398 -3.577424 1.936612 -3.227648 0.934541 -0.715395 -0.208776 5.869704 -1.429548 -0.397317 7.514988 -1.434209 -0.380160 -4.261203 2.369989 -1.402353 4.701554 -1.535976 -1.674153 -18.935579 -54.669029 -22.388554 -49.566877 -140.499518 -59.336066 -0.000000 0.000000 -0.000002 39.026970 -14.016215 3.412068 -0.000007 -0.000003 -3.000001 -4.999697 -7.998720 0.000052 -20.617107 61.873536 24.338829 -57.970035 135.853077 71.057245 0.000001 0.000007 0.000003 33.223133 9.729614 -2.639114 0.000008 -0.000003 2.999969 -5.000158 7.998814 -0.000127 -83.422032 -167.219915 4.708783 179.999991 0.000004 -0.984007 97.634740 -2.215622 -4.877144 -0.000002 -0.000000 1.742882 67.815418 8.471992 -1.763131 25.456953 -7.355613 0.000087 -83.799311 166.025301 -3.631594 -0.000035 -0.000003 -1.259809 -83.260286 -0.345021 2.335746 -0.000001 -0.000001 -2.242849 62.077356 -8.952877 1.972554 25.460288 7.355622 -0.000822 
56.394802 -14.070709 56.734985 -3.572452 1.936742 -3.227528 0.935546 -0.714714 -0.208529 5.871693 -1.429026 -0.396515 7.516977 -1.433678 -0.379364 -4.266586 2.373043 -1.401592 4.703415 -1.541992 -1.673208 -18.929596 -54.667048 -22.381289 -49.561789 -140.494573 -59.330814 0.000001 0.000000 -0.000002 39.047457 -14.012068 3.412074 -0.000005 -0.000002 -3.000000 -4.999695 -7.998720 0.000053 -20.611993 61.872682 24.332882 -57.967249 135.852039 71.054704 0.000000 0.000007 0.000006 33.239003 9.726440 -2.638888 0.000006 -0.000003 2.999971 -5.000162 7.998816 -0.000129 -83.428268 -167.221937 4.703060 179.999991 0.000006 -0.982996 97.630007 -2.210374 -4.873595 -0.000002 0.000000 1.742849 67.814810 8.467683 -1.752232 25.456957 -7.355611 0.000085 -83.804010 166.027091 -3.633714 -0.000035 -0.000003 -1.260410 -83.259227 -0.344152 2.336499 -0.000001 -0.000000 -2.242469 62.074672 -8.954519 1.975722 25.460292 7.355620 -0.000823 
56.384502 -14.071106 56.726681 -3.567462 1.936873 -3.227399 0.936554 -0.714045 -0.208286 5.873682 -1.428524 -0.395724 7.518966 -1.433156 -0.378581 -4.271900 2.376188 -1.400845 4.705073 -1.548068 -1.672304 -18.923558 -54.664961 -22.373955 -49.556093 -140.490284 -59.324776 -0.000000 -0.000000 -0.000002 39.068122 -14.007806 3.412045 -0.000008 -0.000002 -3.000001 -4.999698 -7.998723 0.000052 -20.607000 61.871999 24.327095 -57.965295 135.850482 71.053440 0.000001 0.000006 0.000005 33.255071 9.723248 -2.638686 0.000005 -0.000003 2.999970 -5.000157 7.998813 -0.000127 -83.434770 -167.223918 4.696615 179.999991 0.000006 -0.982995 97.625417 -2.205316 -4.871005 -0.000002 -0.000000 1.742810 67.814332 8.463416 -1.741535 25.456957 -7.355615 0.000087 -83.808750 166.028962 -3.636031 -0.000035 -0.000004 -1.261000 -83.258285 -0.343301 2.337231 -0.000001 -0.000001 -2.242089 62.071905 -8.956191 1.978975 25.460290 7.355620 -0.000821 
56.415802 -14.154808 56.722187 -3.562392 1.937033 -3.227282 0.937568 -0.713404 -0.208058 5.875682 -1.428041 -0.394967 7.520965 -1.432673 -0.377830 -4.277014 2.379564 -1.400171 4.706214 -1.554245 -1.671475 -18.917268 -54.662714 -22.366377 -49.550161 -140.485858 -59.318683 0.000001 -0.000000 -0.000003 39.089214 -14.003544 3.412114 -0.000005 -0.000001 -3.000001 -4.999695 -7.998722 0.000052 -20.602081 61.871426 24.321378 -57.963239 135.848843 71.052020 -0.000001 0.000006 0.000005 33.271556 9.720011 -2.638528 0.000005 -0.000002 2.999971 -5.000162 7.998814 -0.000127 -83.441231 -167.225844 4.690277 179.999991 0.000005 -0.982995 97.620793 -2.200402 -4.868430 -0.000003 -0.000000 1.742770 67.813765 8.459219 -1.730919 25.456957 -7.355614 0.000088 -83.813736 166.030738 -3.637515 -0.000035 -0.000003 -1.261580 -83.257247 -0.342474 2.337925 -0.000001 -0.000001 -2.241710 62.069207 -8.957785 1.982050 25.460287 7.355621 -0.000822 
56.418705 -14.140213 56.727993 -3.557226 1.937213 -3.227166 0.938581 -0.712812 -0.207853 5.877691 -1.427608 -0.394263 7.522974 -1.432240 -0.377128 -4.281832 2.383288 -1.399570 4.706539 -1.560613 -1.670793 -18.910866 -54.659866 -22.358568 -49.543945 -140.481268 -59.312912 -0.000001 0.000000 -0.000003 39.110811 -13.999181 3.412215 -0.000008 -0.000002 -3.000001 -4.999695 -7.998722 0.000052 -20.597262 61.871030 24.315776 -57.961013 135.847067 71.050462 0.000000 0.000007 0.000004 33.288737 9.716695 -2.638459 0.000005 -0.000002 2.999970 -5.000162 7.998815 -0.000127 -83.447952 -167.227715 4.683420 179.999991 0.000005 -0.981999 97.616264 -2.195521 -4.864843 -0.000002 -0.000000 1.742729 67.813342 8.455103 -1.720497 25.456957 -7.355617 0.000087 -83.818709 166.032514 -3.639418 -0.000035 -0.000004 -1.262150 -83.256304 -0.341706 2.338562 -0.000001 -0.000001 -2.241329 62.066598 -8.959305 1.984955 25.460288 7.355623 -0.000822 
56.423203 -14.153011 56.722885 -3.551911 1.937444 -3.227041 0.939602 -0.712281 -0.207678 5.879721 -1.427245 -0.393627 7.525014 -1.431866 -0.376496 -4.286228 2.387512 -1.399111 4.705745 -1.567242 -1.670298 -18.904077 -54.656591 -22.350332 -49.537385 -140.476501 -59.307427 -0.000001 -0.000000 -0.000002 39.133210 -13.994666 3.412380 -0.000007 -0.000002 -3.000000 -4.999695 -7.998722 0.000053 -20.592652 61.870920 24.310423 -57.959319 135.844526 71.049786 0.000001 0.000007 0.000004 33.306834 9.713281 -2.638492 0.000006 -0.000003 2.999971 -5.000157 7.998813 -0.000128 -83.454550 -167.229901 4.678250 179.999991 0.000004 -0.981998 97.611886 -2.190824 -4.862233 -0.000003 -0.000000 1.742671 67.812871 8.451174 -1.710537 25.456955 -7.355614 0.000087 -83.824023 166.034358 -3.640753 -0.000035 -0.000004 -1.262690 -83.255464 -0.341013 2.339115 -0.000001 -0.000000 -2.240960 62.064078 -8.960748 1.987682 25.460290 7.355623 -0.000822 
56.434105 -14.168701 56.724392 -3.546410 1.937735 -3.226931 0.940631 -0.711833 -0.207545 5.881780 -1.426971 -0.393080 7.527063 -1.431582 -0.375954 -4.290096 2.392367 -1.398805 4.703522 -1.574184 -1.670049 -18.896796 -54.652664 -22.341521 -49.529591 -140.472006 -59.301164 -0.000000 -0.000000 -0.000003 39.156532 -13.990052 3.412656 -0.000007 -0.000001 -3.000000 -4.999694 -7.998720 0.000053 -20.588343 61.871275 24.305396 -57.957345 135.841767 71.049007 0.000002 0.000006 0.000005 33.326026 9.709663 -2.638595 0.000003 -0.000002 2.999971 -5.000165 7.998813 -0.000128 -83.461592 -167.231868 4.671746 179.999991 0.000004 -0.981999 97.607658 -2.186322 -4.859634 -0.000001 -0.000000 1.742611 67.812570 8.447360 -1.700864 25.456955 -7.355613 0.000087 -83.829616 166.036202 -3.641973 -0.000035 -0.000003 -1.263200 -83.254740 -0.340408 2.339570 -0.000002 -0.000000 -2.240590 62.061619 -8.962070 1.990149 25.460295 7.355620 -0.000822 
